<svg width="226" height="226" viewBox="0 0 226 226" fill="none" xmlns="http://www.w3.org/2000/svg">
<rect width="226" height="226" rx="25" fill="#FF6700"/>
<path fill-rule="evenodd" clip-rule="evenodd" d="M162.985 163.027C180.709 149.454 192 128.947 192 106C192 65.1309 156.183 32 112 32C67.8172 32 32 65.1309 32 106C32 146.869 67.8172 180 112 180C119.985 180 127.696 178.918 134.972 176.904L163.011 193.124L162.985 163.027Z" fill="white"/>
<mask id="path-3-inside-1_116_17" fill="white">
<path fill-rule="evenodd" clip-rule="evenodd" d="M146.229 129.353C152.404 127.229 157.971 122.826 161.595 116.549C169.223 103.336 165.355 86.8215 152.955 79.6625C146.85 76.1374 139.814 75.5379 133.333 77.4152C129.077 69.969 121.408 65 112.654 65C103.857 65 96.1562 70.0172 91.9123 77.5234C80.4053 74.5229 68.1815 78.9494 62.2912 89.1517C55.1322 101.551 60.0399 117.787 73.2527 125.416C75.1397 126.505 77.094 127.36 79.0787 127.989V150H146.229V129.353Z"/>
</mask>
<path fill-rule="evenodd" clip-rule="evenodd" d="M146.229 129.353C152.404 127.229 157.971 122.826 161.595 116.549C169.223 103.336 165.355 86.8215 152.955 79.6625C146.85 76.1374 139.814 75.5379 133.333 77.4152C129.077 69.969 121.408 65 112.654 65C103.857 65 96.1562 70.0172 91.9123 77.5234C80.4053 74.5229 68.1815 78.9494 62.2912 89.1517C55.1322 101.551 60.0399 117.787 73.2527 125.416C75.1397 126.505 77.094 127.36 79.0787 127.989V150H146.229V129.353Z" fill="#FF6700"/>
<path d="M146.229 129.353L144.276 123.68L140.229 125.073V129.353H146.229ZM161.595 116.549L166.791 119.549L161.595 116.549ZM152.955 79.6625L155.955 74.4663L152.955 79.6625ZM133.333 77.4152L128.125 80.3928L130.468 84.492L135.003 83.1782L133.333 77.4152ZM91.9123 77.5234L90.3984 83.3293L94.864 84.4937L97.1353 80.4764L91.9123 77.5234ZM62.2912 89.1517L67.4874 92.1517L62.2912 89.1517ZM73.2527 125.416L76.2527 120.22L73.2527 125.416ZM79.0787 127.989H85.0787V123.597L80.8917 122.27L79.0787 127.989ZM79.0787 150H73.0787V156H79.0787V150ZM146.229 150V156H152.229V150H146.229ZM148.181 135.027C155.714 132.435 162.438 127.089 166.791 119.549L156.398 113.549C153.503 118.563 149.094 122.022 144.276 123.68L148.181 135.027ZM166.791 119.549C175.894 103.782 171.531 83.4588 155.955 74.4663L149.955 84.8586C159.179 90.1841 162.552 102.89 156.398 113.549L166.791 119.549ZM155.955 74.4663C148.328 70.0629 139.591 69.356 131.664 71.6521L135.003 83.1782C140.037 81.7199 145.371 82.2118 149.955 84.8586L155.955 74.4663ZM138.542 74.4375C133.332 65.3218 123.781 59 112.654 59V71C119.034 71 124.822 74.6162 128.125 80.3928L138.542 74.4375ZM112.654 59C101.472 59 91.8837 65.383 86.6893 74.5705L97.1353 80.4764C100.429 74.6514 106.243 71 112.654 71V59ZM93.4262 71.7176C79.6006 68.1125 64.4822 73.3569 57.0951 86.1517L67.4874 92.1517C71.8809 84.5419 81.2099 80.9334 90.3984 83.3293L93.4262 71.7176ZM57.0951 86.1517C48.1026 101.727 54.4859 121.509 70.2527 130.612L76.2527 120.22C65.5938 114.066 62.1619 101.376 67.4874 92.1517L57.0951 86.1517ZM70.2527 130.612C72.5168 131.919 74.8692 132.949 77.2658 133.709L80.8917 122.27C79.3187 121.771 77.7625 121.091 76.2527 120.22L70.2527 130.612ZM85.0787 150V127.989H73.0787V150H85.0787ZM146.229 144H79.0787V156H146.229V144ZM140.229 129.353V150H152.229V129.353H140.229Z" fill="#FF6700" mask="url(#path-3-inside-1_116_17)"/>
</svg>
