<svg width="403" height="307" viewBox="0 0 403 307" fill="none" xmlns="http://www.w3.org/2000/svg">
<circle cx="207" cy="160" r="103" fill="url(#paint0_radial_126_37)" stroke="white" stroke-width="10"/>
<circle cx="207" cy="160" r="124" stroke="white" stroke-width="10"/>
<path fill-rule="evenodd" clip-rule="evenodd" d="M352 25.5C352 11.4167 363.417 0 377.5 0C391.583 0 403 11.4167 403 25.5V185V290.5C403 299.613 395.613 307 386.5 307C377.387 307 370 299.613 370 290.5V185H352V25.5ZM383 173C379.686 173 377 175.686 377 179V285C377 288.314 379.686 291 383 291H391C394.314 291 397 288.314 397 285V179C397 175.686 394.314 173 391 173H383Z" fill="white"/>
<path fill-rule="evenodd" clip-rule="evenodd" d="M9 84V16.625V16.1111H8.97254C8.72381 13.7986 6.81628 12 4.5 12C2.18372 12 0.276186 13.7986 0.0274644 16.1111H0V16.625V84V86V110C0 119.606 7.52402 127.454 17 127.973L17 291C17 298.732 23.268 305 31 305C38.732 305 45 298.732 45 291L45 127.89C53.9999 126.895 61 119.265 61 110V86V84V16.625V16.1111H60.9725C60.7238 13.7986 58.8163 12 56.5 12C54.1837 12 52.2762 13.7986 52.0275 16.1111H52V16.625V84H44V16.625V16.5V16.1111V16H43.9725C43.7238 13.75 41.8163 12 39.5 12C37.1837 12 35.2762 13.75 35.0275 16H35V16.1111V16.5V16.625V84H26V16.625V16.1111H25.9725C25.7238 13.7986 23.8163 12 21.5 12C19.1837 12 17.2762 13.7986 17.0275 16.1111H17V16.625V84H9ZM30 131C25.5817 131 22 134.582 22 139V283C22 287.418 25.5817 291 30 291H33C37.4183 291 41 287.418 41 283V139C41 134.582 37.4183 131 33 131H30Z" fill="white"/>
<defs>
<radialGradient id="paint0_radial_126_37" cx="0" cy="0" r="1" gradientUnits="userSpaceOnUse" gradientTransform="translate(207 160) rotate(90) scale(98)">
<stop stop-color="#B5B5B5"/>
<stop offset="0.825" stop-color="#D9D9D9"/>
</radialGradient>
</defs>
</svg>
